<?xml version="1.0" encoding="utf-8"?>
<!-- Generator: Adobe Illustrator 16.0.0, SVG Export Plug-In . SVG Version: 6.00 Build 0)  -->
<!DOCTYPE svg PUBLIC "-//W3C//DTD SVG 1.1//EN" "http://www.w3.org/Graphics/SVG/1.1/DTD/svg11.dtd">
<svg version="1.1" id="Layer_1" xmlns="http://www.w3.org/2000/svg" xmlns:xlink="http://www.w3.org/1999/xlink" x="0px" y="0px"
	 width="370px" height="101px" viewBox="116.5 328.5 370 101" enable-background="new 116.5 328.5 370 101" xml:space="preserve">
<g id="Layer_2">
	<path fill="#FFFFFF" d="M427.182,366.334h5.861l0.1,2.483c0.498-0.695,2.783-3.18,6.758-3.18c6.459,0,9.936,3.975,9.936,10.931
		v16.197h-6.061v-15.998c0-3.577-2.186-5.664-5.268-5.664c-3.08,0-5.266,2.087-5.266,5.664v15.998h-6.061V366.334z M375.809,392.766
		h-6.061v-38.356h6.061V392.766z M388.826,392.766h-6.063v-26.432h6.063V392.766z M385.746,353.813
		c-2.088,0-3.777,1.689-3.777,3.776c0,2.086,1.689,3.775,3.777,3.775c2.086,0,3.775-1.689,3.775-3.775
		C389.621,355.503,387.832,353.813,385.746,353.813 M356.731,366.334h6.061v26.332h-6.061l-0.1-2.782
		c-1.094,1.094-4.074,3.479-8.148,3.479c-7.154,0-12.52-5.764-12.52-13.912c0-8.646,5.764-13.911,12.52-13.911
		c4.77,0,7.354,2.583,8.148,3.478L356.731,366.334z M342.223,379.55c0,5.067,3.08,8.446,7.453,8.446
		c3.875,0,7.451-2.882,7.451-8.446c0-5.466-3.377-8.446-7.451-8.446C345.104,371.104,342.223,374.681,342.223,379.55
		 M414.463,379.55c0-5.466-3.479-8.446-7.453-8.446c-4.67,0-7.453,3.875-7.453,8.446c0,4.869,2.883,8.446,7.453,8.446
		C411.283,387.996,414.463,384.915,414.463,379.55 M420.225,390.083c0,11.326-6.656,15.104-14.408,15.104
		c-5.166,0-8.346-1.59-9.439-2.088l1.49-5.266c0.697,0.396,3.578,2.086,7.852,2.086c4.57,0,8.346-2.881,8.346-8.146v-1.789
		c-0.496,0.496-3.08,3.577-8.248,3.577c-7.055,0-12.42-5.664-12.42-13.912c0-7.85,5.068-13.911,12.52-13.911
		c5.068,0,7.652,2.882,8.148,3.478l0.1-2.782h6.061V390.083L420.225,390.083z"/>
	<path fill="#FFFFFF" d="M280.715,366.334l6.856,15.898l6.757-15.898h6.757l-13.613,28.22l-13.514-28.22H280.715z M314.898,386.704
		c1.489,0.895,4.372,1.987,6.856,1.987c2.98,0,4.371-1.292,4.371-2.981c0-1.788-1.094-2.781-4.371-3.975
		c-5.168-1.788-7.254-4.472-7.254-7.651c0-4.67,3.676-8.347,9.936-8.347c2.98,0,5.564,0.695,7.154,1.59l-1.391,4.671
		c-1.094-0.696-3.279-1.491-5.664-1.491s-3.875,1.192-3.875,2.882s1.291,2.584,4.67,3.875c4.869,1.689,6.955,4.174,7.055,8.05
		c0,4.869-3.576,8.346-10.73,8.346c-3.279,0-6.162-0.795-8.148-1.887L314.898,386.704z M243.154,392.766h-6.062v-26.432h6.062
		V392.766z M240.174,353.813c-2.087,0-3.776,1.689-3.776,3.776c0,2.086,1.689,3.775,3.776,3.775c2.086,0,3.775-1.689,3.775-3.775
		C243.949,355.503,242.26,353.813,240.174,353.813 M309.432,392.766h-6.061v-26.432h6.061V392.766z M306.351,353.813
		c-2.087,0-3.875,1.689-3.875,3.776c0,2.086,1.689,3.775,3.875,3.775c2.086,0,3.777-1.689,3.777-3.775
		C310.128,355.503,308.438,353.813,306.351,353.813 M250.11,366.334h5.862l0.1,2.483c0.497-0.695,2.583-3.18,6.856-3.18
		c5.862,0,9.837,3.975,9.837,10.931v16.197h-6.062v-15.898c0-3.379-2.186-5.665-5.267-5.665c-3.08,0-5.266,2.286-5.266,5.665v15.898
		h-6.062V366.334z"/>
	<path fill="#FFFFFF" d="M459.774,364.645c2.186,0,3.975,1.788,3.975,4.074c0,2.285-1.889,3.975-3.975,3.975
		c-2.186,0-4.074-1.689-4.074-3.975C455.799,366.334,457.588,364.645,459.774,364.645 M459.774,372.097
		c1.789,0,3.279-1.49,3.279-3.478s-1.49-3.478-3.279-3.478c-1.889,0-3.279,1.49-3.279,3.478S457.885,372.097,459.774,372.097
		 M458.283,366.234h1.789c1.092,0,1.59,0.397,1.59,1.391c0,0.895-0.498,1.192-1.193,1.292l1.391,2.087h-0.795l-1.291-1.987h-0.795
		v1.987h-0.695V366.234z M458.979,368.42h0.695c0.596,0,1.291,0,1.291-0.795c0-0.695-0.596-0.695-1.092-0.695h-0.994v1.49H458.979z"
		/>
</g>
<g id="Layer_3">
	<g opacity="0.5">
		<path fill="#FFFFFF" d="M214.558,379.501c-4.372-2.484-8.546-3.975-12.223-4.571c0.299,1.49,0.397,3.08,0.397,4.571
			c0,1.59-0.099,3.08-0.397,4.67C206.012,383.476,210.186,381.985,214.558,379.501z"/>
		<path fill="#FFFFFF" d="M197.963,364.396c2.087-3.08,3.975-7.055,5.366-11.924c-4.77,1.392-8.844,3.279-11.924,5.366
			C193.989,359.627,196.175,361.913,197.963,364.396z"/>
		<path fill="#FFFFFF" d="M171.731,353.565c1.49-0.298,3.08-0.397,4.57-0.397c1.59,0,3.081,0.1,4.671,0.397
			c-0.696-3.676-2.187-7.85-4.571-12.222C173.916,345.716,172.426,349.89,171.731,353.565z"/>
		<path fill="#FFFFFF" d="M154.739,364.396c1.789-2.583,3.975-4.77,6.559-6.558c-3.08-2.087-7.055-3.975-11.924-5.366
			C150.764,357.342,152.653,361.316,154.739,364.396z"/>
		<path fill="#FFFFFF" d="M138.244,379.501c4.372,2.484,8.545,3.975,12.222,4.57c-0.298-1.49-0.397-3.08-0.397-4.57
			c0-1.59,0.1-3.081,0.397-4.671C146.789,375.526,142.616,377.017,138.244,379.501z"/>
		<path fill="#FFFFFF" d="M154.739,394.604c-2.086,3.079-3.975,7.054-5.365,11.923c4.77-1.391,8.844-3.279,11.924-5.365
			C158.813,399.373,156.528,397.088,154.739,394.604z"/>
		<path fill="#FFFFFF" d="M171.731,405.436c0.695,3.676,2.186,7.85,4.57,12.221c2.484-4.371,3.975-8.545,4.571-12.221
			c-1.49,0.297-3.08,0.396-4.571,0.396C174.811,405.832,173.221,405.732,171.731,405.436z"/>
		<path fill="#FFFFFF" d="M191.504,401.162c3.081,2.086,7.056,3.975,11.925,5.365c-1.392-4.77-3.279-8.844-5.366-11.923
			C196.175,397.088,193.989,399.373,191.504,401.162z"/>
	</g>
	<g opacity="0.75">
		<path fill="#FFFFFF" d="M202.335,374.93c-1.688-0.298-3.279-0.497-4.77-0.497c-1.689,0-3.378,0.199-4.968,0.597
			c0.397,1.49,0.596,2.98,0.596,4.57c0,1.591-0.198,3.081-0.596,4.571c1.59,0.397,3.18,0.596,4.968,0.596
			c1.392,0,2.981-0.198,4.77-0.496c0.299-1.49,0.397-3.08,0.397-4.671C202.733,377.911,202.634,376.42,202.335,374.93z"/>
		<path fill="#FFFFFF" d="M191.107,371.153c1.392-0.795,2.684-1.888,3.876-3.08c0.993-0.993,1.987-2.285,2.98-3.677
			c-1.788-2.583-3.975-4.77-6.558-6.558c-1.392,0.993-2.684,1.987-3.677,2.98c-1.192,1.192-2.285,2.484-3.08,3.876
			C187.331,366.285,189.616,368.57,191.107,371.153z"/>
		<path fill="#FFFFFF" d="M176.401,353.168c-1.59,0-3.08,0.1-4.57,0.397c-0.299,1.689-0.497,3.279-0.497,4.771
			c0,1.688,0.198,3.378,0.596,4.968c1.491-0.397,2.981-0.596,4.571-0.596s3.08,0.198,4.57,0.596c0.397-1.59,0.597-3.18,0.597-4.968
			c0-1.392-0.199-2.981-0.497-4.771C179.481,353.268,177.99,353.168,176.401,353.168z"/>
		<path fill="#FFFFFF" d="M161.297,357.938c-2.584,1.788-4.77,3.975-6.559,6.558c0.994,1.392,1.987,2.683,2.981,3.677
			c1.192,1.192,2.484,2.285,3.875,3.08c1.49-2.683,3.776-4.869,6.359-6.359c-0.795-1.391-1.888-2.683-3.08-3.875
			C163.98,359.926,162.787,358.832,161.297,357.938z"/>
		<path fill="#FFFFFF" d="M160.105,384.071c-0.397-1.49-0.597-2.98-0.597-4.57s0.199-3.081,0.597-4.571
			c-1.59-0.397-3.18-0.596-4.969-0.596c-1.391,0-2.98,0.198-4.77,0.496c-0.298,1.491-0.397,3.081-0.397,4.671s0.1,3.08,0.397,4.57
			c1.689,0.299,3.279,0.497,4.77,0.497C156.925,384.568,158.515,384.37,160.105,384.071z"/>
		<path fill="#FFFFFF" d="M161.695,387.848c-1.392,0.795-2.683,1.888-3.875,3.081c-0.994,0.993-1.987,2.285-2.981,3.676
			c1.789,2.583,3.975,4.769,6.559,6.558c1.391-0.994,2.683-1.988,3.676-2.98c1.192-1.193,2.286-2.483,3.081-3.875
			C165.371,392.717,163.185,390.431,161.695,387.848z"/>
		<path fill="#FFFFFF" d="M176.401,396.394c-1.59,0-3.08-0.199-4.57-0.597c-0.397,1.59-0.597,3.18-0.597,4.967
			c0,1.393,0.199,2.982,0.497,4.771c1.49,0.297,3.08,0.396,4.67,0.396s3.08-0.1,4.571-0.396c0.298-1.689,0.496-3.279,0.496-4.771
			c0-1.688-0.198-3.377-0.596-4.967C179.481,396.194,177.99,396.394,176.401,396.394z"/>
		<path fill="#FFFFFF" d="M191.107,387.848c-1.49,2.683-3.775,4.869-6.359,6.359c0.795,1.392,1.889,2.682,3.081,3.875
			c0.993,0.994,2.285,1.986,3.676,2.98c2.584-1.789,4.77-3.975,6.559-6.558c-0.994-1.391-1.987-2.683-2.981-3.676
			C193.79,389.636,192.498,388.643,191.107,387.848z"/>
	</g>
	<g>
		<path fill="#FFFFFF" d="M192.697,374.93c-3.378,0.795-6.359,2.385-8.645,4.571c2.285,2.086,5.267,3.676,8.645,4.57
			c0.397-1.49,0.597-2.98,0.597-4.57S193.094,376.42,192.697,374.93z"/>
		<path fill="#FFFFFF" d="M184.649,364.794c-1.889,2.981-2.783,6.261-2.882,9.341c3.08-0.1,6.359-1.093,9.34-2.882
			C189.616,368.57,187.331,366.285,184.649,364.794z"/>
		<path fill="#FFFFFF" d="M171.83,363.204c0.795,3.379,2.385,6.359,4.57,8.646c2.087-2.286,3.677-5.267,4.571-8.646
			c-1.491-0.397-2.981-0.596-4.571-0.596S173.321,362.807,171.83,363.204z"/>
		<path fill="#FFFFFF" d="M161.695,371.153c2.98,1.889,6.26,2.783,9.341,2.882c-0.1-3.08-1.094-6.359-2.882-9.34
			C165.371,366.285,163.185,368.57,161.695,371.153z"/>
		<path fill="#FFFFFF" d="M160.105,374.93c-0.397,1.49-0.597,2.981-0.597,4.571s0.199,3.08,0.597,4.57
			c3.378-0.795,6.359-2.385,8.645-4.57C166.464,377.414,163.483,375.824,160.105,374.93z"/>
		<path fill="#FFFFFF" d="M168.054,394.207c1.888-2.981,2.782-6.26,2.882-9.341c-3.081,0.199-6.261,1.094-9.241,2.981
			C163.185,390.431,165.371,392.717,168.054,394.207z"/>
		<path fill="#FFFFFF" d="M171.83,395.797c1.49,0.397,2.98,0.597,4.57,0.597s3.08-0.199,4.571-0.597
			c-0.795-3.378-2.385-6.359-4.571-8.645C174.314,389.438,172.625,392.319,171.83,395.797z"/>
		<path fill="#FFFFFF" d="M184.649,394.207c2.683-1.49,4.868-3.776,6.359-6.359c-2.981-1.888-6.261-2.782-9.341-2.882
			C181.965,388.046,182.86,391.226,184.649,394.207z"/>
	</g>
</g>
</svg>
